<svg width="278" height="37" viewBox="0 0 278 37" fill="none" xmlns="http://www.w3.org/2000/svg">
<path d="M8.64668 36.5C6.01335 36.5 3.99668 35.75 2.59668 34.25C1.23001 32.75 0.54668 30.6333 0.54668 27.9V9.1C0.54668 6.36667 1.23001 4.25 2.59668 2.75C3.99668 1.25 6.01335 0.499998 8.64668 0.499998C11.28 0.499998 13.28 1.25 14.6467 2.75C16.0467 4.25 16.7467 6.36667 16.7467 9.1V12.8H11.5467V8.75C11.5467 6.58333 10.63 5.5 8.79668 5.5C6.96335 5.5 6.04668 6.58333 6.04668 8.75V28.3C6.04668 30.4333 6.96335 31.5 8.79668 31.5C10.63 31.5 11.5467 30.4333 11.5467 28.3V22.95H16.7467V27.9C16.7467 30.6333 16.0467 32.75 14.6467 34.25C13.28 35.75 11.28 36.5 8.64668 36.5ZM30.0373 0.999998H35.5373V31H44.5873V36H30.0373V0.999998ZM57.2248 0.999998H62.7248V36H57.2248V0.999998ZM84.5939 36.5C81.9606 36.5 79.9439 35.75 78.5439 34.25C77.1773 32.75 76.4939 30.6333 76.4939 27.9V9.1C76.4939 6.36667 77.1773 4.25 78.5439 2.75C79.9439 1.25 81.9606 0.499998 84.5939 0.499998C87.2273 0.499998 89.2273 1.25 90.5939 2.75C91.9939 4.25 92.6939 6.36667 92.6939 9.1V12.8H87.4939V8.75C87.4939 6.58333 86.5773 5.5 84.7439 5.5C82.9106 5.5 81.9939 6.58333 81.9939 8.75V28.3C81.9939 30.4333 82.9106 31.5 84.7439 31.5C86.5773 31.5 87.4939 30.4333 87.4939 28.3V22.95H92.6939V27.9C92.6939 30.6333 91.9939 32.75 90.5939 34.25C89.2273 35.75 87.2273 36.5 84.5939 36.5ZM105.985 0.999998H111.485V15.75L118.485 0.999998H123.985L117.435 13.85L124.085 36H118.335L113.685 20.4L111.485 24.85V36H105.985V0.999998ZM143.496 36.5C140.829 36.5 138.813 35.75 137.446 34.25C136.079 32.7167 135.396 30.5333 135.396 27.7V25.7H140.596V28.1C140.596 30.3667 141.546 31.5 143.446 31.5C144.379 31.5 145.079 31.2333 145.546 30.7C146.046 30.1333 146.296 29.2333 146.296 28C146.296 26.5333 145.963 25.25 145.296 24.15C144.629 23.0167 143.396 21.6667 141.596 20.1C139.329 18.1 137.746 16.3 136.846 14.7C135.946 13.0667 135.496 11.2333 135.496 9.2C135.496 6.43333 136.196 4.3 137.596 2.8C138.996 1.26666 141.029 0.499998 143.696 0.499998C146.329 0.499998 148.313 1.26666 149.646 2.8C151.013 4.3 151.696 6.46667 151.696 9.3V10.75H146.496V8.95C146.496 7.75 146.263 6.88333 145.796 6.35C145.329 5.78333 144.646 5.5 143.746 5.5C141.913 5.5 140.996 6.61667 140.996 8.85C140.996 10.1167 141.329 11.3 141.996 12.4C142.696 13.5 143.946 14.8333 145.746 16.4C148.046 18.4 149.629 20.2167 150.496 21.85C151.363 23.4833 151.796 25.4 151.796 27.6C151.796 30.4667 151.079 32.6667 149.646 34.2C148.246 35.7333 146.196 36.5 143.496 36.5ZM164.949 0.999998H172.799L176.299 26.05H176.399L179.899 0.999998H187.749V36H182.549V9.5H182.449L178.449 36H173.849L169.849 9.5H169.749V36H164.949V0.999998ZM206.104 0.999998H213.554L219.254 36H213.754L212.754 29.05V29.15H206.504L205.504 36H200.404L206.104 0.999998ZM212.104 24.4L209.654 7.1H209.554L207.154 24.4H212.104ZM231.922 0.999998H240.072C242.905 0.999998 244.972 1.66666 246.272 3C247.572 4.3 248.222 6.31666 248.222 9.05V11.2C248.222 14.8333 247.022 17.1333 244.622 18.1V18.2C245.955 18.6 246.889 19.4167 247.422 20.65C247.989 21.8833 248.272 23.5333 248.272 25.6V31.75C248.272 32.75 248.305 33.5667 248.372 34.2C248.439 34.8 248.605 35.4 248.872 36H243.272C243.072 35.4333 242.939 34.9 242.872 34.4C242.805 33.9 242.772 33 242.772 31.7V25.3C242.772 23.7 242.505 22.5833 241.972 21.95C241.472 21.3167 240.589 21 239.322 21H237.422V36H231.922V0.999998ZM239.422 16C240.522 16 241.339 15.7167 241.872 15.15C242.439 14.5833 242.722 13.6333 242.722 12.3V9.6C242.722 8.33333 242.489 7.41667 242.022 6.85C241.589 6.28333 240.889 6 239.922 6H237.422V16H239.422ZM266.29 6H260.54V0.999998H277.54V6H271.79V36H266.29V6Z" fill="#0A1629"/>
</svg>
